# xmcd
#
# Track frame offsets: 
#        150
#        11538
#        21399
#        32830
#        45988
#        57620
#        69123
#        82996
#        95414
#        108697
#        122264
#        134864
#        145158
#        155623
#        166372
#        178274
#        192435
#        203849
#        216336
#        232331
#        243080
#        254206
#        265836
#        277162
#        289426
#        301991
#
# Disc length: 4165 seconds
#
# Revision: 0
# Processed by: cddbd v1.5.2PL0 Copyright (c) Steve Scherf et al.
# Submitted via: ExactAudioCopy v1.0b1
#
DISCID=9410431a
DTITLE=Chuck Willis  - The Complete Chuck Willis - Disc 2 
DYEAR=1900
DGENRE=
TTITLE0=Love Struck
TTITLE1=Lawdy Miss Mary
TTITLE2=One More Break
TTITLE3=I Can Tell
TTITLE4=Search My Heart
TTITLE5=Ring Ding Doo
TTITLE6=Come on Home
TTITLE7=If I Were You
TTITLE8=Two Spoons of Tears
TTITLE9=Charged with Cheatin'
TTITLE10=My Baby's on My Mind
TTITLE11=Take It Like a Man
TTITLE12=Keep a Knockin'
TTITLE13=If I Had a Million
TTITLE14=You Broke My Heart (You Know You Don't Love Me)
TTITLE15=Make Up Your Mind
TTITLE16=You Win This Time
TTITLE17=I Don't Mind If I Do (There Was a Time)
TTITLE18=Blow Mr Jackson
TTITLE19=Welcome Home
TTITLE20=Peace and Love
TTITLE21=Search My Heart
TTITLE22=Bless Her Heart (Break My Rule)
TTITLE23=Night of Misery
TTITLE24=It's Too Late [Live]
TTITLE25=What's Your Name [Live]
EXTD=
EXTT0=
EXTT1=
EXTT2=
EXTT3=
EXTT4=
EXTT5=
EXTT6=
EXTT7=
EXTT8=
EXTT9=
EXTT10=
EXTT11=
EXTT12=
EXTT13=
EXTT14=
EXTT15=
EXTT16=
EXTT17=
EXTT18=
EXTT19=
EXTT20=
EXTT21=
EXTT22=
EXTT23=
EXTT24=
EXTT25=
PLAYORDER=
